<svg width="15" height="20" viewBox="0 0 15 20" fill="none" xmlns="http://www.w3.org/2000/svg">
<path d="M15 18.2144C15 18.4986 14.8871 18.7711 14.6862 18.972C14.4853 19.173 14.2127 19.2859 13.9286 19.2859H1.07143C0.787268 19.2859 0.514746 19.173 0.313814 18.972C0.112882 18.7711 0 18.4986 0 18.2144V3.75014C0 3.46598 0.112882 3.19346 0.313814 2.99253C0.514746 2.79159 0.787268 2.67871 1.07143 2.67871H13.9286C14.2127 2.67871 14.4853 2.79159 14.6862 2.99253C14.8871 3.19346 15 3.46598 15 3.75014V18.2144Z" fill="#C1694F"/>
<path d="M13.3929 17.1427C13.3929 17.2847 13.3365 17.421 13.236 17.5215C13.1355 17.6219 12.9993 17.6784 12.8572 17.6784H2.14289C2.00081 17.6784 1.86455 17.6219 1.76408 17.5215C1.66362 17.421 1.60718 17.2847 1.60718 17.1427V4.82124C1.60718 4.67916 1.66362 4.5429 1.76408 4.44243C1.86455 4.34196 2.00081 4.28552 2.14289 4.28552H12.8572C12.9993 4.28552 13.1355 4.34196 13.236 4.44243C13.3365 4.5429 13.3929 4.67916 13.3929 4.82124V17.1427Z" fill="white"/>
<path d="M11.25 1.60708H9.10716C9.10716 1.18084 8.93784 0.772058 8.63644 0.47066C8.33504 0.169262 7.92626 -6.10352e-05 7.50002 -6.10352e-05C7.07378 -6.10352e-05 6.66499 0.169262 6.3636 0.47066C6.0622 0.772058 5.89287 1.18084 5.89287 1.60708H3.75002C3.46586 1.60708 3.19334 1.71996 2.9924 1.9209C2.79147 2.12183 2.67859 2.39435 2.67859 2.67851V5.35708H12.3214V2.67851C12.3214 2.39435 12.2086 2.12183 12.0076 1.9209C11.8067 1.71996 11.5342 1.60708 11.25 1.60708Z" fill="#CCD6DD"/>
<path d="M7.50002 2.67862C8.09175 2.67862 8.57145 2.19893 8.57145 1.6072C8.57145 1.01546 8.09175 0.535767 7.50002 0.535767C6.90828 0.535767 6.42859 1.01546 6.42859 1.6072C6.42859 2.19893 6.90828 2.67862 7.50002 2.67862Z" fill="#292F33"/>
<path d="M8.57145 7.4997C8.57145 7.64178 8.51501 7.77804 8.41454 7.87851C8.31407 7.97898 8.17781 8.03542 8.03573 8.03542H3.2143C3.07222 8.03542 2.93596 7.97898 2.8355 7.87851C2.73503 7.77804 2.67859 7.64178 2.67859 7.4997C2.67859 7.35762 2.73503 7.22136 2.8355 7.1209C2.93596 7.02043 3.07222 6.96399 3.2143 6.96399H8.03573C8.17781 6.96399 8.31407 7.02043 8.41454 7.1209C8.51501 7.22136 8.57145 7.35762 8.57145 7.4997ZM12.3214 9.64256C12.3214 9.78464 12.265 9.9209 12.1645 10.0214C12.0641 10.1218 11.9278 10.1783 11.7857 10.1783H3.2143C3.07222 10.1783 2.93596 10.1218 2.8355 10.0214C2.73503 9.9209 2.67859 9.78464 2.67859 9.64256C2.67859 9.50048 2.73503 9.36422 2.8355 9.26375C2.93596 9.16329 3.07222 9.10685 3.2143 9.10685H11.7857C11.9278 9.10685 12.0641 9.16329 12.1645 9.26375C12.265 9.36422 12.3214 9.50048 12.3214 9.64256ZM12.3214 11.7854C12.3214 11.9275 12.265 12.0638 12.1645 12.1642C12.0641 12.2647 11.9278 12.3211 11.7857 12.3211H3.2143C3.07222 12.3211 2.93596 12.2647 2.8355 12.1642C2.73503 12.0638 2.67859 11.9275 2.67859 11.7854C2.67859 11.6433 2.73503 11.5071 2.8355 11.4066C2.93596 11.3061 3.07222 11.2497 3.2143 11.2497H11.7857C11.9278 11.2497 12.0641 11.3061 12.1645 11.4066C12.265 11.5071 12.3214 11.6433 12.3214 11.7854ZM12.3214 13.9283C12.3214 14.0704 12.265 14.2066 12.1645 14.3071C12.0641 14.4075 11.9278 14.464 11.7857 14.464H3.2143C3.07222 14.464 2.93596 14.4075 2.8355 14.3071C2.73503 14.2066 2.67859 14.0704 2.67859 13.9283C2.67859 13.7862 2.73503 13.6499 2.8355 13.5495C2.93596 13.449 3.07222 13.3926 3.2143 13.3926H11.7857C11.9278 13.3926 12.0641 13.449 12.1645 13.5495C12.265 13.6499 12.3214 13.7862 12.3214 13.9283ZM12.3214 16.0711C12.3214 16.2132 12.265 16.3495 12.1645 16.4499C12.0641 16.5504 11.9278 16.6068 11.7857 16.6068H6.9643C6.82222 16.6068 6.68596 16.5504 6.5855 16.4499C6.48503 16.3495 6.42859 16.2132 6.42859 16.0711C6.42859 15.9291 6.48503 15.7928 6.5855 15.6923C6.68596 15.5919 6.82222 15.5354 6.9643 15.5354H11.7857C11.9278 15.5354 12.0641 15.5919 12.1645 15.6923C12.265 15.7928 12.3214 15.9291 12.3214 16.0711Z" fill="#99AAB5"/>
</svg>
