<svg width="45" height="45" viewBox="0 0 45 45" fill="none" xmlns="http://www.w3.org/2000/svg">
<path d="M45 27.5C45 28.8261 44.4732 30.0979 43.5355 31.0355C42.5979 31.9732 41.3261 32.5 40 32.5H5C3.67392 32.5 2.40215 31.9732 1.46447 31.0355C0.526784 30.0979 0 28.8261 0 27.5V5C0 3.67392 0.526784 2.40215 1.46447 1.46447C2.40215 0.526784 3.67392 0 5 0L40 0C41.3261 0 42.5979 0.526784 43.5355 1.46447C44.4732 2.40215 45 3.67392 45 5V27.5Z" fill="#D6D6D6"/>
<path d="M5 5H40V27.5H5V5Z" fill="#384AAD"/>
<path d="M16.25 32.5H28.75V40H16.25V32.5Z" fill="#D6D6D6"/>
<path d="M16.25 32.5H28.75V35H16.25V32.5Z" fill="#858792"/>
<path d="M45 41.25C45 40.2554 44.6049 39.3016 43.9016 38.5983C43.1984 37.8951 42.2446 37.5 41.25 37.5H3.75C2.75544 37.5 1.80161 37.8951 1.09835 38.5983C0.395088 39.3016 0 40.2554 0 41.25C0 42.2446 0.395088 43.1984 1.09835 43.9016C1.80161 44.6049 2.75544 45 3.75 45H41.25C42.2446 45 43.1984 44.6049 43.9016 43.9016C44.6049 43.1984 45 42.2446 45 41.25Z" fill="#DADAE0"/>
<path d="M3.75 40H6.25V42.5H3.75V40ZM8.75 40H11.25V42.5H8.75V40ZM13.75 40H16.25V42.5H13.75V40ZM18.75 40H21.25V42.5H18.75V40ZM23.75 40H26.25V42.5H23.75V40ZM28.75 40H31.25V42.5H28.75V40ZM33.75 40H36.25V42.5H33.75V40ZM38.75 40H41.25V42.5H38.75V40Z" fill="#F5F8FA"/>
</svg>
