<svg width="53" height="12" viewBox="0 0 53 12" fill="none" xmlns="http://www.w3.org/2000/svg">
<path d="M16.5512 1.85604C16.4541 1.49727 16.2647 1.1702 16.0019 0.907399C15.739 0.644596 15.412 0.455232 15.0532 0.358165C13.7397 0 8.45373 0 8.45373 0C8.45373 0 3.16758 0.0108692 1.85427 0.369035C1.49552 0.466117 1.16845 0.655488 0.90565 0.91829C0.642848 1.18109 0.453476 1.50816 0.356394 1.86691C-0.0409002 4.20068 -0.195036 7.75656 0.367263 9.99685C0.464346 10.3556 0.653717 10.6827 0.916519 10.9455C1.17932 11.2083 1.50639 11.3976 1.86514 11.4947C3.17855 11.8529 8.4646 11.8529 8.4646 11.8529C8.4646 11.8529 13.7506 11.8529 15.0641 11.4947C15.4228 11.3976 15.7499 11.2083 16.0127 10.9455C16.2755 10.6827 16.4648 10.3556 16.5619 9.99685C16.9809 7.65987 17.11 4.10617 16.5511 1.85615" fill="#FF0000"/>
<path d="M6.77136 8.46632L11.1565 5.92645L6.77136 3.38647V8.46632Z" fill="white"/>
<path d="M50.8509 3.44079C51.4261 3.44079 51.8603 3.54928 52.1642 3.75548C52.4681 3.96179 52.6853 4.28735 52.8155 4.73247C52.9458 5.17748 53 5.78522 53 6.56677V7.83681H50.2104V8.22748L50.2539 9.30208C50.2864 9.54089 50.3408 9.71459 50.4275 9.82307C50.5145 9.93166 50.6555 9.9859 50.84 9.9859C51.0897 9.9859 51.2634 9.88829 51.3502 9.69296C51.4479 9.49752 51.4912 9.17185 51.5021 8.72684L52.9458 8.81369C52.9566 8.8788 52.9566 8.96565 52.9566 9.07414C52.9566 9.75796 52.7721 10.2682 52.3922 10.6046C52.0122 10.941 51.4912 11.1147 50.8074 11.1147C49.9825 11.1147 49.4073 10.8543 49.0816 10.3442C48.756 9.83394 48.5823 9.03066 48.5823 7.95616V6.64275C48.6192 4.79758 48.9437 3.44618 50.8509 3.44079ZM30.7812 3.58189V9.01989C30.7812 9.34556 30.8137 9.58437 30.8897 9.72546C31.0438 10.0272 31.4433 9.95009 31.6604 9.80144C31.7857 9.71673 31.8867 9.60076 31.9534 9.46501V3.58178H33.6141V10.9953H32.3116L32.1705 10.0835H32.138C31.7798 10.7673 31.2479 11.1146 30.5424 11.1146C29.4565 11.112 29.1908 10.3296 29.1275 9.53499L29.1234 9.47899C29.1156 9.35864 29.111 9.2381 29.1096 9.11751V3.58189H30.7812ZM39.3453 3.58189V9.01989C39.3453 9.34556 39.3778 9.58437 39.4538 9.72546C39.608 10.0272 40.0074 9.95009 40.2245 9.80144C40.3498 9.71673 40.4508 9.60076 40.5175 9.46501V3.58178H42.1782V10.9953H40.8757L40.7346 10.0835H40.7021C40.3439 10.7673 39.812 11.1146 39.1065 11.1146C38.0206 11.112 37.7549 10.3296 37.6916 9.53499L37.6875 9.47899C37.6797 9.35864 37.6751 9.2381 37.6737 9.11751V3.58189H39.3453ZM25.9618 3.44079C26.5045 3.44079 26.9496 3.54928 27.2752 3.77722C27.6008 4.00516 27.8505 4.35256 28.0024 4.83008C28.1544 5.30771 28.2304 5.94806 28.2304 6.74047V7.81497C28.2304 8.60738 28.1544 9.23697 28.0024 9.71449C27.8505 10.1922 27.6117 10.5395 27.2752 10.7675C26.9388 10.9845 26.4828 11.1039 25.9184 11.1039C25.3322 11.1147 24.8763 10.9954 24.5399 10.7783C24.2035 10.5504 23.9646 10.203 23.8236 9.72546C23.6824 9.24784 23.6173 8.61825 23.6173 7.82594V6.75124C23.6173 5.95882 23.6933 5.3076 23.8561 4.82998C24.0189 4.34159 24.2685 3.99419 24.6159 3.77722C24.9632 3.56004 25.4082 3.44069 25.9618 3.44069M44.7833 0.466675V4.3742H44.7942C44.9461 4.09201 45.1415 3.86407 45.4129 3.69037C45.6663 3.51996 45.9649 3.42925 46.2703 3.42992C46.672 3.42992 46.9759 3.53841 47.2038 3.74461C47.4318 3.96179 47.5946 4.29822 47.6922 4.76497C47.7869 5.21713 47.8408 5.84247 47.8441 6.63105L47.8442 6.70797V7.88018C47.8442 8.97642 47.7031 9.79057 47.4425 10.3116C47.1713 10.8326 46.7588 11.0931 46.1943 11.0931C45.8796 11.0931 45.5974 11.0171 45.3369 10.876C45.1065 10.7418 44.9155 10.5493 44.7831 10.3179L44.7616 10.279H44.7291L44.5554 10.9845H43.1768V0.466778L44.7833 0.466675ZM38.1404 0.846579V2.19239H36.4905V10.9953H34.8624V2.19249H33.2017V0.846682L38.1404 0.846579ZM20.2415 0.846579L20.2426 0.850719C20.2584 0.921214 20.4778 1.89685 20.7192 3.03356L20.7383 3.12362L20.7671 3.25974L20.7863 3.35115L20.796 3.39701L20.8152 3.48893L20.8248 3.53499L20.844 3.62723L20.8719 3.76211C21.035 4.54924 21.1906 5.33866 21.2836 5.90468H21.3271C21.4162 5.39694 21.5457 4.74717 21.6838 4.08373L21.72 3.91045C21.7383 3.8237 21.7565 3.73695 21.7749 3.65041L21.8033 3.51615C21.9908 2.63697 22.1839 1.759 22.3826 0.882292L22.3857 0.868317L22.3907 0.846579H24.0514L22.1302 7.69572V10.9845H20.4912V7.70648H20.4803L18.5808 0.846475L20.2415 0.846579ZM25.9292 4.59127C25.7013 4.59127 25.5493 4.71073 25.4517 4.96041C25.354 5.20999 25.3106 5.58989 25.3106 6.12186V8.43379C25.3106 8.97652 25.354 9.37806 25.4408 9.61697C25.5277 9.85568 25.6905 9.97514 25.9292 9.97514C26.1571 9.97514 26.32 9.85568 26.4177 9.61697C26.5154 9.37806 26.5588 8.97652 26.5588 8.43379V6.12176C26.5588 5.58989 26.5153 5.19912 26.4177 4.96031C26.32 4.71073 26.1571 4.59127 25.9292 4.59127ZM45.0764 4.80845C44.9441 4.9306 44.85 5.08121 44.794 5.26951L44.7833 5.30771V9.51915C44.9179 9.74709 45.109 9.89906 45.4454 9.90992C45.6191 9.90992 45.7601 9.84481 45.8688 9.71459C45.9773 9.58437 46.0532 9.36719 46.0966 9.06327C46.1383 8.77156 46.1601 8.36971 46.1617 7.85793V6.82732C46.1617 6.24121 46.14 5.7962 46.1075 5.48141C46.064 5.16661 46.0099 4.93867 45.9122 4.80845C45.7232 4.53703 45.3152 4.54034 45.0764 4.80845ZM50.8184 4.55877C50.6338 4.56964 50.5035 4.62388 50.4275 4.7216C50.3408 4.83008 50.2864 4.99291 50.2539 5.23172C50.2219 5.46567 50.211 6.28345 50.2104 6.31616V6.84906H51.4261V6.3791V6.3881C51.4254 6.55238 51.422 6.29276 51.4145 5.97404L51.4135 5.93118C51.4067 5.65107 51.3967 5.33876 51.3828 5.23172C51.3502 4.98204 51.2958 4.80834 51.2091 4.71073C51.1222 4.61301 50.992 4.55877 50.8183 4.55877" fill="#282828"/>
</svg>
