<svg width="20" height="20" viewBox="0 0 20 20" fill="none" xmlns="http://www.w3.org/2000/svg">
<path d="M17.7778 0C18.3671 0 18.9324 0.234126 19.3491 0.650874C19.7659 1.06762 20 1.63285 20 2.22222V17.7778C20 18.3671 19.7659 18.9324 19.3491 19.3491C18.9324 19.7659 18.3671 20 17.7778 20H2.22222C1.63285 20 1.06762 19.7659 0.650874 19.3491C0.234126 18.9324 0 18.3671 0 17.7778V2.22222C0 1.63285 0.234126 1.06762 0.650874 0.650874C1.06762 0.234126 1.63285 0 2.22222 0H17.7778ZM15.2222 7.05556C15.4667 6.82222 15.4667 6.43333 15.2222 6.2L13.8 4.77778C13.7448 4.71989 13.6784 4.67381 13.6049 4.64233C13.5314 4.61084 13.4522 4.59461 13.3722 4.59461C13.2922 4.59461 13.2131 4.61084 13.1396 4.64233C13.066 4.67381 12.9996 4.71989 12.9444 4.77778L11.8333 5.88889L14.1111 8.16667L15.2222 7.05556ZM4.44444 13.2667V15.5556H6.73333L13.4667 8.82222L11.1778 6.53333L4.44444 13.2667Z" fill="#323232"/>
</svg>
