<svg width="45" height="45" viewBox="0 0 45 45" fill="none" xmlns="http://www.w3.org/2000/svg">
<path d="M22.5 38.5C24.9058 38.5021 27.281 37.9607 29.4482 36.9162C31.6157 35.8716 33.5192 34.3508 35.0165 32.4673L35.6703 31.6449L34.8167 31.0325C31.6173 28.7371 27.2679 27.125 22.5 27.125C17.7321 27.125 13.3827 28.7371 10.1833 31.0325L9.3297 31.6449L9.98347 32.4673C11.4808 34.3508 13.3843 35.8716 15.5518 36.9162C17.719 37.9607 20.0942 38.5021 22.5 38.5ZM22.5 38.5C22.5003 38.5 22.5006 38.5 22.5009 38.5L22.5 37.5L22.4991 38.5C22.4994 38.5 22.4997 38.5 22.5 38.5ZM4.75 22.5C4.75 12.6967 12.6967 4.75002 22.5 4.75002C32.3033 4.75002 40.25 12.6967 40.25 22.5C40.25 32.3034 32.3033 40.25 22.5 40.25C12.6967 40.25 4.75 32.3034 4.75 22.5ZM15.5132 14.9185C15.1331 15.836 14.9375 16.8194 14.9375 17.8125C14.9375 19.8182 15.7343 21.7418 17.1525 23.16C18.5708 24.5783 20.4943 25.375 22.5 25.375C24.5057 25.375 26.4293 24.5783 27.8475 23.16C29.2657 21.7418 30.0625 19.8182 30.0625 17.8125C30.0625 16.8194 29.8669 15.836 29.4868 14.9185C29.1068 14.0009 28.5497 13.1673 27.8475 12.465C27.1453 11.7628 26.3116 11.2057 25.394 10.8257C24.4765 10.4456 23.4931 10.25 22.5 10.25C21.5069 10.25 20.5235 10.4456 19.606 10.8257C18.6884 11.2057 17.8548 11.7628 17.1525 12.465C16.4503 13.1673 15.8932 14.0009 15.5132 14.9185Z" fill="white" stroke="#323232" stroke-width="2"/>
</svg>
