<svg width="18" height="18" viewBox="0 0 18 18" fill="none" xmlns="http://www.w3.org/2000/svg">
<g filter="url(#filter0_i_20_103)">
<path d="M8.22876 8.23828C8.22876 8.07252 8.29461 7.91355 8.41182 7.79634C8.52903 7.67913 8.688 7.61328 8.85376 7.61328H16.9975C17.1633 7.61328 17.3222 7.67913 17.4395 7.79634C17.5567 7.91355 17.6225 8.07252 17.6225 8.23828V17.0664C17.6225 17.2322 17.5567 17.3911 17.4395 17.5083C17.3222 17.6256 17.1633 17.6914 16.9975 17.6914H8.85376C8.688 17.6914 8.52903 17.6256 8.41182 17.5083C8.29461 17.3911 8.22876 17.2322 8.22876 17.0664V8.23828Z" fill="url(#paint0_linear_20_103)"/>
<path d="M8.22876 8.23828C8.22876 8.07252 8.29461 7.91355 8.41182 7.79634C8.52903 7.67913 8.688 7.61328 8.85376 7.61328H16.9975C17.1633 7.61328 17.3222 7.67913 17.4395 7.79634C17.5567 7.91355 17.6225 8.07252 17.6225 8.23828V17.0664C17.6225 17.2322 17.5567 17.3911 17.4395 17.5083C17.3222 17.6256 17.1633 17.6914 16.9975 17.6914H8.85376C8.688 17.6914 8.52903 17.6256 8.41182 17.5083C8.29461 17.3911 8.22876 17.2322 8.22876 17.0664V8.23828Z" fill="url(#paint1_radial_20_103)"/>
</g>
<g filter="url(#filter1_f_20_103)">
<path d="M9.92761 9.47868C9.92761 9.3958 9.89469 9.31632 9.83608 9.25771C9.77748 9.19911 9.69799 9.16618 9.61511 9.16618C9.53223 9.16618 9.45275 9.19911 9.39414 9.25771C9.33554 9.31632 9.30261 9.3958 9.30261 9.47868H9.92761ZM15.7676 9.03931C15.7676 8.95643 15.7347 8.87694 15.6761 8.81834C15.6175 8.75973 15.538 8.72681 15.4551 8.72681C15.3722 8.72681 15.2927 8.75973 15.2341 8.81834C15.1755 8.87694 15.1426 8.95643 15.1426 9.03931H15.7676ZM9.92761 10.8162V9.47868H9.30261V10.8162H9.92761ZM15.1426 9.03931V10.8162H15.7676V9.03931H15.1426ZM12.5351 13.6287C11.1289 13.6287 9.92761 12.3887 9.92761 10.8162H9.30261C9.30261 12.6956 10.7464 14.2537 12.5351 14.2537V13.6287ZM12.5351 14.2537C14.3239 14.2537 15.7676 12.6956 15.7676 10.8162H15.1426C15.1426 12.3887 13.9414 13.6287 12.5351 13.6287V14.2537Z" fill="#F19A39"/>
</g>
<g filter="url(#filter2_i_20_103)">
<path d="M10.26 9.08765C10.26 9.00477 10.2271 8.92528 10.1685 8.86668C10.1099 8.80807 10.0304 8.77515 9.94751 8.77515C9.86463 8.77515 9.78514 8.80807 9.72654 8.86668C9.66793 8.92528 9.63501 9.00477 9.63501 9.08765H10.26ZM16.0994 9.08765C16.0994 9.00477 16.0665 8.92528 16.0079 8.86668C15.9492 8.80807 15.8698 8.77515 15.7869 8.77515C15.704 8.77515 15.6245 8.80807 15.5659 8.86668C15.5073 8.92528 15.4744 9.00477 15.4744 9.08765H16.0994ZM10.26 10.4258V9.08827H9.63501V10.4258H10.26ZM15.4744 9.08827V10.4258H16.0994V9.08827H15.4744ZM12.8669 13.2383C11.4606 13.2383 10.26 11.9983 10.26 10.4258H9.63501C9.63501 12.3051 11.0788 13.8633 12.8675 13.8633L12.8669 13.2383ZM12.8675 13.8633C14.6569 13.8633 16.0994 12.3051 16.0994 10.4258H15.4744C15.4744 11.9983 14.2738 13.2383 12.8669 13.2383L12.8675 13.8633Z" fill="#E45A3B"/>
</g>
<g filter="url(#filter3_f_20_103)">
<path d="M10.1326 9.08765C10.1326 9.06693 10.1243 9.04705 10.1097 9.0324C10.095 9.01775 10.0752 9.00952 10.0544 9.00952C10.0337 9.00952 10.0139 9.01775 9.9992 9.0324C9.98455 9.04705 9.97632 9.06693 9.97632 9.08765H10.1326ZM15.9726 9.08765C15.9726 9.06693 15.9643 9.04705 15.9497 9.0324C15.935 9.01775 15.9152 9.00952 15.8944 9.00952C15.8737 9.00952 15.8539 9.01775 15.8392 9.0324C15.8245 9.04705 15.8163 9.06693 15.8163 9.08765H15.9726ZM10.1326 10.4258V9.08827H9.97632V10.4258H10.1326ZM15.8163 9.08827V10.4258H15.9726V9.08827H15.8163ZM12.9744 13.4726C11.4244 13.4726 10.1326 12.1133 10.1326 10.4258H9.97632C9.97632 12.1901 11.3288 13.6289 12.9744 13.6289V13.4726ZM12.9744 13.6289C14.6201 13.6289 15.9726 12.1901 15.9726 10.4258H15.8163C15.8163 12.1133 14.5244 13.4726 12.9744 13.4726V13.6289Z" fill="url(#paint2_linear_20_103)"/>
<path d="M10.1326 9.08765C10.1326 9.06693 10.1243 9.04705 10.1097 9.0324C10.095 9.01775 10.0752 9.00952 10.0544 9.00952C10.0337 9.00952 10.0139 9.01775 9.9992 9.0324C9.98455 9.04705 9.97632 9.06693 9.97632 9.08765H10.1326ZM15.9726 9.08765C15.9726 9.06693 15.9643 9.04705 15.9497 9.0324C15.935 9.01775 15.9152 9.00952 15.8944 9.00952C15.8737 9.00952 15.8539 9.01775 15.8392 9.0324C15.8245 9.04705 15.8163 9.06693 15.8163 9.08765H15.9726ZM10.1326 10.4258V9.08827H9.97632V10.4258H10.1326ZM15.8163 9.08827V10.4258H15.9726V9.08827H15.8163ZM12.9744 13.4726C11.4244 13.4726 10.1326 12.1133 10.1326 10.4258H9.97632C9.97632 12.1901 11.3288 13.6289 12.9744 13.6289V13.4726ZM12.9744 13.6289C14.6201 13.6289 15.9726 12.1901 15.9726 10.4258H15.8163C15.8163 12.1133 14.5244 13.4726 12.9744 13.4726V13.6289Z" fill="url(#paint3_linear_20_103)"/>
</g>
<path d="M10.8069 3.80493H0.88501C0.539832 3.80493 0.26001 4.08475 0.26001 4.42993V15.7387C0.26001 16.0839 0.539832 16.3637 0.88501 16.3637H10.8069C11.1521 16.3637 11.4319 16.0839 11.4319 15.7387V4.42993C11.4319 4.08475 11.1521 3.80493 10.8069 3.80493Z" fill="url(#paint4_linear_20_103)"/>
<path d="M10.8069 3.80493H0.88501C0.539832 3.80493 0.26001 4.08475 0.26001 4.42993V15.7387C0.26001 16.0839 0.539832 16.3637 0.88501 16.3637H10.8069C11.1521 16.3637 11.4319 16.0839 11.4319 15.7387V4.42993C11.4319 4.08475 11.1521 3.80493 10.8069 3.80493Z" fill="url(#paint5_linear_20_103)"/>
<path d="M10.8069 3.80493H0.88501C0.539832 3.80493 0.26001 4.08475 0.26001 4.42993V15.7387C0.26001 16.0839 0.539832 16.3637 0.88501 16.3637H10.8069C11.1521 16.3637 11.4319 16.0839 11.4319 15.7387V4.42993C11.4319 4.08475 11.1521 3.80493 10.8069 3.80493Z" fill="url(#paint6_linear_20_103)"/>
<path d="M10.8069 3.80493H0.88501C0.539832 3.80493 0.26001 4.08475 0.26001 4.42993V15.7387C0.26001 16.0839 0.539832 16.3637 0.88501 16.3637H10.8069C11.1521 16.3637 11.4319 16.0839 11.4319 15.7387V4.42993C11.4319 4.08475 11.1521 3.80493 10.8069 3.80493Z" fill="url(#paint7_linear_20_103)"/>
<g filter="url(#filter4_f_20_103)">
<path d="M10.8263 4.41016V15.3477" stroke="url(#paint8_linear_20_103)" stroke-width="0.46875" stroke-linecap="round"/>
</g>
<path d="M0.26001 9.11748V7.72998H11.4313V9.11748H0.26001Z" fill="#3A92EA"/>
<path d="M0.26001 9.11748V7.72998H11.4313V9.11748H0.26001Z" fill="url(#paint9_linear_20_103)"/>
<path d="M0.26001 9.11748V7.72998H11.4313V9.11748H0.26001Z" fill="url(#paint10_linear_20_103)"/>
<path d="M0.26001 9.11748V7.72998H11.4313V9.11748H0.26001Z" fill="url(#paint11_linear_20_103)"/>
<path d="M0.26001 12.0275V10.6406H11.4313V12.0275H0.26001Z" fill="#3A91ED"/>
<path d="M0.26001 12.0275V10.6406H11.4313V12.0275H0.26001Z" fill="url(#paint12_linear_20_103)"/>
<path d="M0.26001 12.0275V10.6406H11.4313V12.0275H0.26001Z" fill="url(#paint13_linear_20_103)"/>
<path d="M0.26001 12.0275V10.6406H11.4313V12.0275H0.26001Z" fill="url(#paint14_linear_20_103)"/>
<path d="M0.26001 14.9377V13.5508H11.4313V14.9377H0.26001Z" fill="#3A8FF0"/>
<path d="M0.26001 14.9377V13.5508H11.4313V14.9377H0.26001Z" fill="url(#paint15_linear_20_103)"/>
<path d="M0.26001 14.9377V13.5508H11.4313V14.9377H0.26001Z" fill="url(#paint16_linear_20_103)"/>
<path d="M0.26001 14.9377V13.5508H11.4313V14.9377H0.26001Z" fill="url(#paint17_linear_20_103)"/>
<g filter="url(#filter5_f_20_103)">
<path d="M17.1312 8.18579L17.1306 17.1139" stroke="url(#paint18_linear_20_103)" stroke-width="0.46875" stroke-linecap="round"/>
</g>
<g filter="url(#filter6_f_20_103)">
<path d="M8.67761 4.15625V6.10938" stroke="#4EB7F5" stroke-width="0.46875" stroke-linecap="round"/>
</g>
<g filter="url(#filter7_f_20_103)">
<path d="M2.38879 4.15625V6.10938" stroke="#4EB7F5" stroke-width="0.46875" stroke-linecap="round"/>
</g>
<g filter="url(#filter8_i_20_103)">
<path d="M8.68753 5.77755C8.68753 5.86043 8.72046 5.93991 8.77906 5.99852C8.83767 6.05713 8.91715 6.09005 9.00003 6.09005C9.08291 6.09005 9.1624 6.05713 9.22101 5.99852C9.27961 5.93991 9.31253 5.86043 9.31253 5.77755H8.68753ZM2.37878 5.77755C2.37878 5.86043 2.41171 5.93991 2.47031 5.99852C2.52892 6.05713 2.6084 6.09005 2.69128 6.09005C2.77416 6.09005 2.85365 6.05713 2.91225 5.99852C2.97086 5.93991 3.00378 5.86043 3.00378 5.77755H2.37878ZM8.68753 3.55005V5.77755H9.31253V3.55005H8.68753ZM3.00378 5.77755V3.55005H2.37878V5.77755H3.00378ZM5.84566 0.737549C7.40316 0.737549 8.68753 2.00067 8.68753 3.55005H9.31253C9.31253 1.64817 7.74066 0.112549 5.84566 0.112549V0.737549ZM5.84566 0.112549C3.95128 0.112549 2.37878 1.64817 2.37878 3.55005H3.00378C3.00378 2.00067 4.28878 0.737549 5.84566 0.737549V0.112549Z" fill="url(#paint19_radial_20_103)"/>
</g>
<g filter="url(#filter9_f_20_103)">
<path d="M9.02942 5.77766C9.02942 5.79838 9.03765 5.81825 9.05231 5.8329C9.06696 5.84755 9.08683 5.85578 9.10755 5.85578C9.12827 5.85578 9.14814 5.84755 9.16279 5.8329C9.17744 5.81825 9.18567 5.79838 9.18567 5.77766H9.02942ZM2.61317 5.77766C2.61317 5.79838 2.6214 5.81825 2.63606 5.8329C2.65071 5.84755 2.67058 5.85578 2.6913 5.85578C2.71202 5.85578 2.73189 5.84755 2.74654 5.8329C2.76119 5.81825 2.76942 5.79838 2.76942 5.77766H2.61317ZM9.02942 3.55016V5.77766H9.18567V3.55016H9.02942ZM2.76942 5.77766L2.7688 3.55016H2.61255V5.77703L2.76942 5.77766ZM5.8988 0.503906C7.61317 0.503906 9.0288 1.87016 9.0288 3.55078H9.18505C9.18505 1.77953 7.69505 0.347656 5.8988 0.347656V0.503906ZM5.8988 0.347656C4.10255 0.347656 2.61255 1.77891 2.61255 3.55016H2.7688C2.7688 1.86953 4.18442 0.503906 5.8988 0.503906V0.347656Z" fill="url(#paint20_linear_20_103)"/>
<path d="M9.02942 5.77766C9.02942 5.79838 9.03765 5.81825 9.05231 5.8329C9.06696 5.84755 9.08683 5.85578 9.10755 5.85578C9.12827 5.85578 9.14814 5.84755 9.16279 5.8329C9.17744 5.81825 9.18567 5.79838 9.18567 5.77766H9.02942ZM2.61317 5.77766C2.61317 5.79838 2.6214 5.81825 2.63606 5.8329C2.65071 5.84755 2.67058 5.85578 2.6913 5.85578C2.71202 5.85578 2.73189 5.84755 2.74654 5.8329C2.76119 5.81825 2.76942 5.79838 2.76942 5.77766H2.61317ZM9.02942 3.55016V5.77766H9.18567V3.55016H9.02942ZM2.76942 5.77766L2.7688 3.55016H2.61255V5.77703L2.76942 5.77766ZM5.8988 0.503906C7.61317 0.503906 9.0288 1.87016 9.0288 3.55078H9.18505C9.18505 1.77953 7.69505 0.347656 5.8988 0.347656V0.503906ZM5.8988 0.347656C4.10255 0.347656 2.61255 1.77891 2.61255 3.55016H2.7688C2.7688 1.86953 4.18442 0.503906 5.8988 0.503906V0.347656Z" fill="url(#paint21_linear_20_103)"/>
</g>
<defs>
<filter id="filter0_i_20_103" x="8.22876" y="7.30078" width="9.7063" height="10.3906" filterUnits="userSpaceOnUse" color-interpolation-filters="sRGB">
<feFlood flood-opacity="0" result="BackgroundImageFix"/>
<feBlend mode="normal" in="SourceGraphic" in2="BackgroundImageFix" result="shape"/>
<feColorMatrix in="SourceAlpha" type="matrix" values="0 0 0 0 0 0 0 0 0 0 0 0 0 0 0 0 0 0 127 0" result="hardAlpha"/>
<feOffset dx="0.3125" dy="-0.3125"/>
<feGaussianBlur stdDeviation="0.3125"/>
<feComposite in2="hardAlpha" operator="arithmetic" k2="-1" k3="1"/>
<feColorMatrix type="matrix" values="0 0 0 0 0.905882 0 0 0 0 0.556863 0 0 0 0 0.329412 0 0 0 1 0"/>
<feBlend mode="normal" in2="shape" result="effect1_innerShadow_20_103"/>
</filter>
<filter id="filter1_f_20_103" x="8.67761" y="8.10181" width="7.71497" height="6.77686" filterUnits="userSpaceOnUse" color-interpolation-filters="sRGB">
<feFlood flood-opacity="0" result="BackgroundImageFix"/>
<feBlend mode="normal" in="SourceGraphic" in2="BackgroundImageFix" result="shape"/>
<feGaussianBlur stdDeviation="0.3125" result="effect1_foregroundBlur_20_103"/>
</filter>
<filter id="filter2_i_20_103" x="9.63501" y="8.77515" width="6.58936" height="5.08813" filterUnits="userSpaceOnUse" color-interpolation-filters="sRGB">
<feFlood flood-opacity="0" result="BackgroundImageFix"/>
<feBlend mode="normal" in="SourceGraphic" in2="BackgroundImageFix" result="shape"/>
<feColorMatrix in="SourceAlpha" type="matrix" values="0 0 0 0 0 0 0 0 0 0 0 0 0 0 0 0 0 0 127 0" result="hardAlpha"/>
<feOffset dx="0.125"/>
<feGaussianBlur stdDeviation="0.125"/>
<feComposite in2="hardAlpha" operator="arithmetic" k2="-1" k3="1"/>
<feColorMatrix type="matrix" values="0 0 0 0 0.862745 0 0 0 0 0.321569 0 0 0 0 0.109804 0 0 0 1 0"/>
<feBlend mode="normal" in2="shape" result="effect1_innerShadow_20_103"/>
</filter>
<filter id="filter3_f_20_103" x="9.88257" y="8.91577" width="6.18372" height="4.80688" filterUnits="userSpaceOnUse" color-interpolation-filters="sRGB">
<feFlood flood-opacity="0" result="BackgroundImageFix"/>
<feBlend mode="normal" in="SourceGraphic" in2="BackgroundImageFix" result="shape"/>
<feGaussianBlur stdDeviation="0.046875" result="effect1_foregroundBlur_20_103"/>
</filter>
<filter id="filter4_f_20_103" x="10.1232" y="3.70703" width="1.40625" height="12.3438" filterUnits="userSpaceOnUse" color-interpolation-filters="sRGB">
<feFlood flood-opacity="0" result="BackgroundImageFix"/>
<feBlend mode="normal" in="SourceGraphic" in2="BackgroundImageFix" result="shape"/>
<feGaussianBlur stdDeviation="0.234375" result="effect1_foregroundBlur_20_103"/>
</filter>
<filter id="filter5_f_20_103" x="16.5837" y="7.63892" width="1.09436" height="10.022" filterUnits="userSpaceOnUse" color-interpolation-filters="sRGB">
<feFlood flood-opacity="0" result="BackgroundImageFix"/>
<feBlend mode="normal" in="SourceGraphic" in2="BackgroundImageFix" result="shape"/>
<feGaussianBlur stdDeviation="0.15625" result="effect1_foregroundBlur_20_103"/>
</filter>
<filter id="filter6_f_20_103" x="7.81824" y="3.29688" width="1.71875" height="3.67188" filterUnits="userSpaceOnUse" color-interpolation-filters="sRGB">
<feFlood flood-opacity="0" result="BackgroundImageFix"/>
<feBlend mode="normal" in="SourceGraphic" in2="BackgroundImageFix" result="shape"/>
<feGaussianBlur stdDeviation="0.3125" result="effect1_foregroundBlur_20_103"/>
</filter>
<filter id="filter7_f_20_103" x="1.52942" y="3.29688" width="1.71875" height="3.67188" filterUnits="userSpaceOnUse" color-interpolation-filters="sRGB">
<feFlood flood-opacity="0" result="BackgroundImageFix"/>
<feBlend mode="normal" in="SourceGraphic" in2="BackgroundImageFix" result="shape"/>
<feGaussianBlur stdDeviation="0.3125" result="effect1_foregroundBlur_20_103"/>
</filter>
<filter id="filter8_i_20_103" x="2.37878" y="0.0500488" width="6.93372" height="6.04004" filterUnits="userSpaceOnUse" color-interpolation-filters="sRGB">
<feFlood flood-opacity="0" result="BackgroundImageFix"/>
<feBlend mode="normal" in="SourceGraphic" in2="BackgroundImageFix" result="shape"/>
<feColorMatrix in="SourceAlpha" type="matrix" values="0 0 0 0 0 0 0 0 0 0 0 0 0 0 0 0 0 0 127 0" result="hardAlpha"/>
<feOffset dy="-0.0625"/>
<feGaussianBlur stdDeviation="0.125"/>
<feComposite in2="hardAlpha" operator="arithmetic" k2="-1" k3="1"/>
<feColorMatrix type="matrix" values="0 0 0 0 0.164706 0 0 0 0 0.560784 0 0 0 0 0.886275 0 0 0 1 0"/>
<feBlend mode="normal" in2="shape" result="effect1_innerShadow_20_103"/>
</filter>
<filter id="filter9_f_20_103" x="2.4563" y="0.191406" width="6.88562" height="5.82056" filterUnits="userSpaceOnUse" color-interpolation-filters="sRGB">
<feFlood flood-opacity="0" result="BackgroundImageFix"/>
<feBlend mode="normal" in="SourceGraphic" in2="BackgroundImageFix" result="shape"/>
<feGaussianBlur stdDeviation="0.078125" result="effect1_foregroundBlur_20_103"/>
</filter>
<linearGradient id="paint0_linear_20_103" x1="10.5919" y1="9.66453" x2="13.7556" y2="15.1333" gradientUnits="userSpaceOnUse">
<stop stop-color="#FEC243"/>
<stop offset="1" stop-color="#FDB046"/>
</linearGradient>
<radialGradient id="paint1_radial_20_103" cx="0" cy="0" r="1" gradientUnits="userSpaceOnUse" gradientTransform="translate(8.79107 15.9648) rotate(52.08) scale(2.18937 2.97804)">
<stop offset="0.225" stop-color="#D38D3C"/>
<stop offset="1" stop-color="#D38D3C" stop-opacity="0"/>
</radialGradient>
<linearGradient id="paint2_linear_20_103" x1="15.3038" y1="8.86327" x2="15.3038" y2="12.7795" gradientUnits="userSpaceOnUse">
<stop stop-color="#F38362"/>
<stop offset="1" stop-color="#F38362" stop-opacity="0"/>
</linearGradient>
<linearGradient id="paint3_linear_20_103" x1="10.8069" y1="12.7795" x2="14.7519" y2="12.7795" gradientUnits="userSpaceOnUse">
<stop stop-color="#F38362"/>
<stop offset="1" stop-color="#F38362" stop-opacity="0"/>
</linearGradient>
<linearGradient id="paint4_linear_20_103" x1="5.84564" y1="3.80493" x2="5.84564" y2="16.3631" gradientUnits="userSpaceOnUse">
<stop stop-color="#59C1FA"/>
<stop offset="1" stop-color="#49A8FF"/>
</linearGradient>
<linearGradient id="paint5_linear_20_103" x1="0.26001" y1="14.9181" x2="1.35376" y2="14.9181" gradientUnits="userSpaceOnUse">
<stop stop-color="#419CE0"/>
<stop offset="1" stop-color="#449FEE" stop-opacity="0"/>
</linearGradient>
<linearGradient id="paint6_linear_20_103" x1="5.63063" y1="16.6562" x2="5.63063" y2="13.9218" gradientUnits="userSpaceOnUse">
<stop stop-color="#4676F8"/>
<stop offset="1" stop-color="#439AFF" stop-opacity="0"/>
</linearGradient>
<linearGradient id="paint7_linear_20_103" x1="5.84563" y1="3.80493" x2="5.84563" y2="5.15243" gradientUnits="userSpaceOnUse">
<stop offset="0.159" stop-color="#61C9E8"/>
<stop offset="1" stop-color="#61C9E8" stop-opacity="0"/>
</linearGradient>
<linearGradient id="paint8_linear_20_103" x1="-nan" y1="-nan" x2="-nan" y2="-nan" gradientUnits="userSpaceOnUse">
<stop stop-color="#80E8FF"/>
<stop offset="0.739" stop-color="#5BB8FF"/>
<stop offset="1" stop-color="#54AFFF"/>
</linearGradient>
<linearGradient id="paint9_linear_20_103" x1="0.26001" y1="8.68748" x2="1.41188" y2="8.68748" gradientUnits="userSpaceOnUse">
<stop offset="0.196" stop-color="#2A81CD"/>
<stop offset="1" stop-color="#2A81CD" stop-opacity="0"/>
</linearGradient>
<linearGradient id="paint10_linear_20_103" x1="11.4319" y1="8.68748" x2="10.3381" y2="8.68748" gradientUnits="userSpaceOnUse">
<stop stop-color="#51A9F3"/>
<stop offset="1" stop-color="#51A9F3" stop-opacity="0"/>
</linearGradient>
<linearGradient id="paint11_linear_20_103" x1="11.4319" y1="9.11748" x2="10.9238" y2="9.11748" gradientUnits="userSpaceOnUse">
<stop stop-color="#3C97EE"/>
<stop offset="1" stop-color="#3C97EE" stop-opacity="0"/>
</linearGradient>
<linearGradient id="paint12_linear_20_103" x1="0.26001" y1="11.5975" x2="1.41188" y2="11.5975" gradientUnits="userSpaceOnUse">
<stop offset="0.196" stop-color="#2A81CD"/>
<stop offset="1" stop-color="#2A81CD" stop-opacity="0"/>
</linearGradient>
<linearGradient id="paint13_linear_20_103" x1="11.4319" y1="11.5975" x2="10.3381" y2="11.5975" gradientUnits="userSpaceOnUse">
<stop stop-color="#51A9F3"/>
<stop offset="1" stop-color="#51A9F3" stop-opacity="0"/>
</linearGradient>
<linearGradient id="paint14_linear_20_103" x1="11.4319" y1="12.0275" x2="10.9238" y2="12.0275" gradientUnits="userSpaceOnUse">
<stop stop-color="#3C97EE"/>
<stop offset="1" stop-color="#3C97EE" stop-opacity="0"/>
</linearGradient>
<linearGradient id="paint15_linear_20_103" x1="0.26001" y1="14.5083" x2="1.41188" y2="14.5083" gradientUnits="userSpaceOnUse">
<stop offset="0.196" stop-color="#2A81CD"/>
<stop offset="1" stop-color="#2A81CD" stop-opacity="0"/>
</linearGradient>
<linearGradient id="paint16_linear_20_103" x1="11.4319" y1="14.5083" x2="10.3381" y2="14.5083" gradientUnits="userSpaceOnUse">
<stop stop-color="#51A9F3"/>
<stop offset="1" stop-color="#51A9F3" stop-opacity="0"/>
</linearGradient>
<linearGradient id="paint17_linear_20_103" x1="11.4319" y1="14.9377" x2="10.9238" y2="14.9377" gradientUnits="userSpaceOnUse">
<stop stop-color="#3C97EE"/>
<stop offset="1" stop-color="#3C97EE" stop-opacity="0"/>
</linearGradient>
<linearGradient id="paint18_linear_20_103" x1="408316" y1="8.01454" x2="408316" y2="16.1439" gradientUnits="userSpaceOnUse">
<stop stop-color="#FFD262"/>
<stop offset="1" stop-color="#FFB84A"/>
</linearGradient>
<radialGradient id="paint19_radial_20_103" cx="0" cy="0" r="1" gradientUnits="userSpaceOnUse" gradientTransform="translate(4.30253 0.738174) rotate(72.9753) scale(5.27 6.21245)">
<stop stop-color="#2C94E3"/>
<stop offset="1" stop-color="#2C9CEB"/>
</radialGradient>
<linearGradient id="paint20_linear_20_103" x1="6.7738" y1="6.09016" x2="6.7738" y2="2.80891" gradientUnits="userSpaceOnUse">
<stop stop-color="#53A9F2"/>
<stop offset="1" stop-color="#53A9F2" stop-opacity="0"/>
</linearGradient>
<linearGradient id="paint21_linear_20_103" x1="8.87317" y1="1.61766" x2="7.64255" y2="3.10203" gradientUnits="userSpaceOnUse">
<stop stop-color="#61B2F2"/>
<stop offset="1" stop-color="#61B2F2" stop-opacity="0"/>
</linearGradient>
</defs>
</svg>
